<?xml version="1.0" encoding="UTF-8"?>
<svg version="1.1" xmlns="http://www.w3.org/2000/svg" width="867" height="288">
<path d="M0 0 C2.84932589 2.37443824 3.70014515 4.51533627 4.6875 8.0625 C4.93886719 8.94035156 5.19023437 9.81820312 5.44921875 10.72265625 C6 13 6 13 6 15 C6.57027263 14.83761904 7.14054525 14.67523808 7.72809887 14.50793648 C10.01970625 13.99559421 12.00599939 13.87419786 14.35041809 13.87301636 C15.2145784 13.87019653 16.07873871 13.86737671 16.96908569 13.86447144 C17.90974884 13.86649567 18.85041199 13.8685199 19.81958008 13.87060547 C20.81709793 13.86885315 21.81461578 13.86710083 22.84236145 13.86529541 C26.15143562 13.86088441 29.46045649 13.8638165 32.76953125 13.8671875 C35.08526113 13.86651324 37.40099094 13.86554219 39.71672058 13.86428833 C44.58662587 13.86281155 49.45651285 13.86496158 54.32641602 13.86962891 C60.50301773 13.87526587 66.6795754 13.87208591 72.85617542 13.86605644 C77.65154842 13.86239833 82.44691144 13.8636142 87.24228477 13.86618423 C89.51475721 13.86684226 91.78723061 13.86606537 94.05970192 13.86370468 C101.37410657 13.85778471 108.68628411 13.89830406 116 14 C117.61560633 14.01980801 117.61560633 14.01980801 119.26385117 14.04001617 C122.45387301 14.08943538 125.64168735 14.16878303 128.83081055 14.25830078 C130.28001876 14.2786781 130.28001876 14.2786781 131.75850391 14.29946709 C138.34497243 14.53246912 138.34497243 14.53246912 141.60432434 16.8588562 C143.52926495 19.81195969 143.57615595 21.54306428 143 25 C140.93580707 27.64198158 139.75172177 28.85663368 136.41992188 29.49206543 C135.44603516 29.48888306 134.47214844 29.48570068 133.46875 29.48242188 C132.36080078 29.48922974 131.25285156 29.4960376 130.11132812 29.50305176 C128.91958984 29.49173218 127.72785156 29.4804126 126.5 29.46875 C124.65825195 29.47932434 124.65825195 29.47932434 122.77929688 29.4901123 C117.52202698 29.51967944 112.26512431 29.50293999 107.0078125 29.49072266 C103.17164739 29.48834879 99.33608989 29.50922521 95.5 29.53125 C94.30826172 29.51993042 93.11652344 29.50861084 91.88867188 29.49694824 C90.78072266 29.5037561 89.67277344 29.51056396 88.53125 29.51757812 C87.55736328 29.51439575 86.58347656 29.51121338 85.58007812 29.50793457 C82.25419841 30.14223724 81.05748213 31.36121901 79 34 C78.66501699 36.66834966 78.66501699 36.66834966 79 39 C79.66 39 80.32 39 81 39 C81 39.66 81 40.32 81 41 C82.1552417 40.97905273 83.3104834 40.95810547 84.50073242 40.93652344 C88.79634148 40.86399602 93.09189665 40.81815407 97.38793945 40.78027344 C99.24545398 40.76018695 101.10290551 40.73291222 102.96020508 40.69824219 C105.63378463 40.64959263 108.30652656 40.62700191 110.98046875 40.609375 C111.80773972 40.58872986 112.63501068 40.56808472 113.48735046 40.54681396 C117.53425877 40.54524731 119.51334643 40.69494354 123.02661133 42.8972168 C125 45 125 45 125.59375 47.03515625 C125.3400787 52.5207982 125.3400787 52.5207982 123.625 54.9375 C120.47421976 56.99762554 118.30452421 57.17825437 114.5546875 57.31640625 C112.94013672 57.37924805 112.94013672 57.37924805 111.29296875 57.44335938 C110.16503906 57.48267578 109.03710938 57.52199219 107.875 57.5625 C106.73933594 57.60568359 105.60367188 57.64886719 104.43359375 57.69335938 C101.62252232 57.7996604 98.81136055 57.90169405 96 58 C95.14349347 60.80045046 95.14349347 60.80045046 95 64 C96.41421538 66.34550202 96.41421538 66.34550202 99 68 C101.83653572 68.38242174 104.28402404 68.5242539 107.11743164 68.48242188 C107.9324968 68.48633438 108.74756195 68.49024689 109.58732605 68.49427795 C111.35410349 68.50024911 113.12093015 68.49708981 114.88768196 68.4858551 C117.68258004 68.46861165 120.47644218 68.47608971 123.27134705 68.4901123 C129.20180175 68.51546851 135.13201308 68.50993662 141.0625 68.5 C147.93779972 68.48848777 154.81259767 68.48954553 161.68783379 68.52406311 C164.44403312 68.53117613 167.1994445 68.51445725 169.95558167 68.49694824 C171.64104644 68.50265391 173.32650796 68.50947011 175.01196289 68.51757812 C176.16455093 68.50060631 176.16455093 68.50060631 177.34042358 68.48329163 C182.51288507 68.54294475 182.51288507 68.54294475 184.96800232 70.84655762 C186.41294742 73.8616865 186.53983863 75.69348838 186 79 C184.34870878 81.57460148 183.61086455 82.57112082 181 84 C176.57635234 84.74967386 172.18844653 84.67312404 167.7109375 84.63671875 C165.73204714 84.6525727 163.7531568 84.66843583 161.77427101 84.68484974 C159.00991315 84.70167508 156.24577369 84.69593528 153.48138428 84.69030762 C148.63518394 84.68384808 143.78910378 84.70655433 138.94302368 84.7389679 C136.36443124 84.75393508 133.78574479 84.75765589 131.2071228 84.74919128 C130.04226349 84.75292252 128.87740417 84.75665375 127.67724609 84.76049805 C126.65086029 84.75874069 125.62447449 84.75698334 124.56698608 84.75517273 C121.75938175 84.81865968 121.75938175 84.81865968 119 87 C118.5 90 118.5 90 119 93 C122.04349232 95.02899488 122.83298503 95.27039695 126.2890625 95.4140625 C127.56608032 95.47194946 127.56608032 95.47194946 128.86889648 95.53100586 C129.77841064 95.56202393 130.6879248 95.59304199 131.625 95.625 C132.55836182 95.66439697 133.49172363 95.70379395 134.45336914 95.74438477 C141.78756893 96.02817258 149.09719117 96.01913023 156.43359375 95.83984375 C160.0572864 96.00257255 162.69355935 96.52451912 166 98 C168.32579101 101.48868651 168.41865457 102.89718519 168 107 C166.55747085 109.49713032 165.78991997 110.78737777 162.95587158 111.55021667 C162.17282654 111.57384781 161.38978149 111.59747894 160.58300781 111.62182617 C159.24450775 111.6765937 159.24450775 111.6765937 157.87896729 111.73246765 C156.91343933 111.75243301 155.94791138 111.77239838 154.953125 111.79296875 C153.94973083 111.82932938 152.94633667 111.86569 151.91253662 111.90315247 C148.69199564 112.01611751 145.47138971 112.10252387 142.25 112.1875 C139.07966236 112.28876326 135.90953599 112.39545272 132.73937988 112.50222778 C130.68566755 112.57065115 128.63187322 112.63665928 126.57800293 112.70016479 C118.70167174 112.94913114 110.85621813 113.38480158 103 114 C102.95758277 116.33294775 102.95907063 118.66702567 103 121 C107.5559452 125.5559452 126.1783883 123.16847479 132.84669685 123.19923019 C135.22261793 123.21125359 137.59837549 123.2307483 139.97422791 123.25234985 C146.71705741 123.31326945 153.45985198 123.3682205 160.20288086 123.40136719 C164.35591594 123.42231179 168.50862052 123.45757738 172.6614666 123.50212479 C174.23425865 123.51624646 175.80710878 123.52499854 177.37996101 123.52817917 C179.5714516 123.53309038 181.76205848 123.55624059 183.95336914 123.58349609 C185.81862999 123.59562637 185.81862999 123.59562637 187.72157288 123.60800171 C191.29208624 124.03492446 193.19290216 124.77529906 196 127 C197.22584441 130.89385872 197.48904921 132.96485368 195.73168945 136.68457031 C191.35787346 140.39189634 186.78707537 139.70667272 181.23046875 139.671875 C180.04447586 139.68462463 178.85848297 139.69737427 177.6365509 139.71051025 C173.81996326 139.74685975 170.00424502 139.74951726 166.1875 139.75 C162.48783802 139.77187855 158.78827697 139.80080309 155.08866882 139.83030701 C152.57616634 139.84987022 150.06364066 139.86663406 147.55110168 139.88075256 C137.27344689 139.94966815 127.01312522 140.256144 116.74212646 140.61637878 C102.81348644 141.09623429 88.88407046 141.32681726 74.94934082 141.53222656 C72.24653836 141.57289734 69.54379217 141.61680824 66.84103966 141.66065407 C51.22630439 141.91264662 35.61681256 142.06448576 20 142 C20 146.95 20 151.9 20 157 C21.28197266 156.94465088 22.56394531 156.88930176 23.88476562 156.83227539 C52.14016907 155.6250601 80.37942698 154.75945672 108.6574707 154.32666016 C120.17559553 154.14887939 131.67779068 153.92559279 143.1875 153.4375 C162.77461314 152.61741778 182.40032905 152.91526581 202 153 C201.10648644 159.35190828 199.18606763 162.97388854 194.4375 167.375 C189.60487561 169.65951335 185.25639338 169.33670847 180 169 C180.2165625 169.56847656 180.433125 170.13695312 180.65625 170.72265625 C183.41675308 178.37794025 183.76585635 184.69148232 181.23046875 192.5 C178.22519183 198.60595945 172.67479222 202.68072718 166.375 205 C158.315685 207.15101302 152.33736367 205.71840883 145.11328125 202.0390625 C139.67388693 198.71171066 136.86569769 194.03020147 135 188 C134.25433743 181.75507602 134.56832798 176.79383389 137 171 C116.31174684 170.82928317 95.67486827 171.31839102 75 172 C75.22526367 173.10952026 75.22526367 173.10952026 75.45507812 174.24145508 C75.7402832 175.70941528 75.7402832 175.70941528 76.03125 177.20703125 C76.22267578 178.17358643 76.41410156 179.1401416 76.61132812 180.13598633 C77.44624478 186.2882522 75.8598458 191.14984679 72.4375 196.25 C68.25245727 201.40161279 62.5012139 204.69712515 56 206 C47.90556415 206.62264891 41.30482873 204.04386298 35 199 C30.48367267 194.09584401 27.84047952 188.60930223 28.07421875 181.85546875 C28.45370818 178.50227528 29.15589642 175.26098133 30 172 C29.14277344 172.03480469 28.28554688 172.06960937 27.40234375 172.10546875 C15.49007862 172.38749532 15.49007862 172.38749532 10 169 C6.39284446 165.48776961 5.59494492 162.91157998 5 158 C5.00925778 156.06546019 5.07385067 154.13066547 5.18359375 152.19921875 C6.13241637 127.46193641 2.38583021 103.5862924 -1.31813049 79.18074036 C-3.16481202 67.01041161 -4.86896936 54.82213443 -6.53683472 42.62615967 C-6.991838 39.30949542 -7.4534338 35.99380324 -7.91625977 32.67822266 C-8.19440011 30.66572145 -8.47232584 28.65319058 -8.75 26.640625 C-8.877733 25.73188629 -9.005466 24.82314758 -9.1370697 23.88687134 C-9.68234903 19.89563078 -10.16635125 16.04025589 -10 12 C-10.74378906 12.28488281 -11.48757813 12.56976563 -12.25390625 12.86328125 C-17.41370658 14.42897666 -22.62543033 15.29517538 -27.9375 16.1875 C-28.99646484 16.37763672 -30.05542969 16.56777344 -31.14648438 16.76367188 C-36.7237586 17.70655479 -41.47407795 18.37771626 -47 17 C-49.80618215 14.64642787 -49.97918231 13.1457238 -50.5 9.5 C-50 6 -50 6 -48.05078125 3.91796875 C-44.04898668 1.40211583 -40.29332399 0.66197882 -35.6875 -0.1875 C-34.87087891 -0.35185547 -34.05425781 -0.51621094 -33.21289062 -0.68554688 C-8.12293458 -5.6235701 -8.12293458 -5.6235701 0 0 Z M31 71 C29.28738888 76.13783337 31.19609376 81.28869566 32.25 86.5 C32.46785156 87.65371094 32.68570313 88.80742187 32.91015625 89.99609375 C33.13058594 91.10082031 33.35101563 92.20554687 33.578125 93.34375 C33.77825195 94.35630859 33.97837891 95.36886719 34.18457031 96.41210938 C35.03234518 99.10265238 35.83842149 100.24381096 38 102 C38.5775 101.319375 39.155 100.63875 39.75 99.9375 C42 98 42 98 44.1875 98.125 C46 99 46 99 47 101 C47.66 101 48.32 101 49 101 C49.226875 101.639375 49.45375 102.27875 49.6875 102.9375 C50.85338976 105.22094782 50.85338976 105.22094782 53.4375 105.9375 C55.99799629 106.22868391 55.99799629 106.22868391 57.875 104.875 C59.18289105 103.04261009 59.18289105 103.04261009 59.0625 100.75 C57.74284153 97.33441337 55.76909931 95.19497362 53.27734375 92.55078125 C52 91 52 91 52 89 C54.31 88.01 56.62 87.02 59 86 C57.94806749 82.82330316 56.97811914 81.98674944 54.05859375 80.21875 C52.85783281 79.63280536 51.65036697 79.06045666 50.4375 78.5 C49.80996826 78.19956787 49.18243652 77.89913574 48.53588867 77.58959961 C46.69621703 76.71377902 44.84913209 75.85562233 43 75 C42.06929687 74.55785156 41.13859375 74.11570312 40.1796875 73.66015625 C35.77998747 71.56200585 35.77998747 71.56200585 31 71 Z M46.5625 176.125 C44.73163141 179.49379821 44.35749278 181.22527006 45 185 C46.90959759 187.61685595 48.39970567 188.74724449 51.375 190 C55.39785885 190 57.12037729 188.74568677 60 186 C60.76643347 183.18206041 60.66736426 180.83194571 60 178 C58.60314994 175.3530128 58.60314994 175.3530128 56 174 C51.71168431 173.31080641 49.88252056 173.2306231 46.5625 176.125 Z M153.0625 176 C150.96461727 179.05146579 150.65070691 179.6516613 150.875 183.125 C151.48371886 186.13446053 151.8705158 186.8779149 154.1875 189.0625 C157.63387807 190.21129269 159.53808375 190.05362668 163 189 C165.32039251 187.39972931 165.89969741 186.27224989 166.875 183.625 C167.03788731 180.20436655 165.9916082 178.72924087 164 176 C162.13036002 173.73701563 162.13036002 173.73701563 159.1875 173.5625 C155.85646312 173.77875327 155.85646312 173.77875327 153.0625 176 Z " fill="#A64E80" transform="translate(296,43)"/>
<path d="M0 0 C1.89395508 -0.02416992 1.89395508 -0.02416992 3.82617188 -0.04882812 C5.65825195 -0.04979492 5.65825195 -0.04979492 7.52734375 -0.05078125 C9.19204712 -0.05525269 9.19204712 -0.05525269 10.89038086 -0.05981445 C14.69428776 0.38665349 18.28319999 1.53319999 21.0625 4.3125 C21.52990995 10.10838336 21.52990995 10.10838336 21.0625 12.3125 C18.56068323 14.92926942 17.08835926 15.30972656 13.44311523 15.70068359 C12.00257234 15.72040512 10.56172253 15.7228317 9.12109375 15.7109375 C8.35700699 15.71380768 7.59292023 15.71667786 6.80567932 15.71963501 C5.19441993 15.72167212 3.58313561 15.71616692 1.97192383 15.70361328 C-0.49518987 15.68753135 -2.96067098 15.70348409 -5.42773438 15.72265625 C-6.99479528 15.72067419 -8.56185517 15.71683127 -10.12890625 15.7109375 C-11.23523155 15.72004654 -11.23523155 15.72004654 -12.36390686 15.7293396 C-17.4502718 15.6593863 -17.4502718 15.6593863 -19.87084961 13.93603516 C-21.3713165 11.65219336 -21.80710625 10.05076871 -21.9375 7.3125 C-20.64509573 4.22508979 -19.72751081 2.71363863 -16.72045898 1.18676758 C-11.31533596 -0.51125379 -5.61796648 -0.01429508 0 0 Z " fill="#A95886" transform="translate(452.9375,83.6875)"/>
<path d="M0 0 C1.18154663 -0.00430527 1.18154663 -0.00430527 2.38696289 -0.00869751 C4.05127685 -0.01073772 5.71561481 -0.00521082 7.37988281 0.00732422 C9.92827947 0.02337941 12.47509021 0.00747506 15.0234375 -0.01171875 C16.6406285 -0.00973631 18.25781852 -0.00589261 19.875 0 C20.63756104 -0.00607269 21.40012207 -0.01214539 22.18579102 -0.0184021 C27.44911712 0.0516175 27.44911712 0.0516175 29.91430664 1.80224609 C31.18434623 3.78351998 31.37055645 5.05224398 31.375 7.3984375 C31.39433594 8.0790625 31.41367187 8.7596875 31.43359375 9.4609375 C30.9375 11.3984375 30.9375 11.3984375 29.38696289 12.99462891 C26.04790653 14.90827129 22.99456339 14.82887936 19.25 14.796875 C18.14072144 14.80118027 18.14072144 14.80118027 17.0090332 14.80557251 C15.44904818 14.80760953 13.8890374 14.80210495 12.32910156 14.78955078 C9.94538092 14.7734906 7.5633556 14.78941029 5.1796875 14.80859375 C3.6614546 14.80661125 2.14322276 14.80276744 0.625 14.796875 C-0.44077271 14.80598404 -0.44077271 14.80598404 -1.52807617 14.8152771 C-4.65775355 14.77093843 -6.77184919 14.56501202 -9.51196289 12.99462891 C-11.0625 11.3984375 -11.0625 11.3984375 -11.55859375 9.4609375 C-11.53925781 8.7803125 -11.51992188 8.0996875 -11.5 7.3984375 C-11.49871094 6.7178125 -11.49742187 6.0371875 -11.49609375 5.3359375 C-10.16233489 -0.6239219 -5.12340795 -0.04080051 0 0 Z " fill="#A65081" transform="translate(482.0625,139.6015625)"/>
<path d="M0 0 C0.85464844 -0.01546875 1.70929687 -0.0309375 2.58984375 -0.046875 C8.79265612 -0.0081679 8.79265612 -0.0081679 12.06640625 2.34375 C14.01830377 5.27957407 14.00460337 7.03986259 13.5 10.5 C11.72015595 13.6359157 10.97691793 14.34102736 7.5 15.5 C4.82228714 15.59644305 2.17684323 15.6392892 -0.5 15.625 C-1.22445312 15.62886719 -1.94890625 15.63273438 -2.6953125 15.63671875 C-5.89282879 15.63081927 -8.44582607 15.51805798 -11.5 14.5 C-13.98038907 10.7794164 -13.96337203 8.90203429 -13.5 4.5 C-10.11631301 -0.68647104 -5.61729297 -0.10167046 0 0 Z " fill="#A44A7D" transform="translate(514.5,165.5)"/>
<path d="M0 0 C0.88816406 0.01353516 1.77632813 0.02707031 2.69140625 0.04101562 C4.87822578 0.07628691 7.06379966 0.12557248 9.25 0.1875 C9.25 0.8475 9.25 1.5075 9.25 2.1875 C9.91 2.1875 10.57 2.1875 11.25 2.1875 C12.65457737 4.99665474 12.49895157 7.07560534 12.25 10.1875 C10.97053872 12.55450337 10.17498383 13.86013043 7.60546875 14.76953125 C4.33000691 15.35074919 1.13779385 15.47681354 -2.1875 15.5625 C-3.48558594 15.61148438 -4.78367187 15.66046875 -6.12109375 15.7109375 C-10.62107345 15.06185539 -12.05015193 13.78037474 -14.75 10.1875 C-14.81269078 6.55143463 -14.70437264 4.30050831 -12.29296875 1.48828125 C-8.30808063 -0.55007166 -4.40189501 -0.12679018 0 0 Z " fill="#A95786" transform="translate(505.75,109.8125)"/>
<path d="M0 0 C3.875 1.75 3.875 1.75 5 4 C5.49609727 7.72072956 5.33450551 9.47487007 3.30004883 12.66870117 C-1.08603408 16.76702664 -7.58605909 15.60434362 -13.17578125 15.48828125 C-14.45607712 15.48120651 -15.73637299 15.47413177 -17.0554657 15.46684265 C-20.44745312 15.44781714 -23.83835774 15.39875838 -27.22991943 15.34332275 C-30.69544834 15.29203199 -34.16115347 15.26930789 -37.62695312 15.24414062 C-44.41843687 15.1890341 -51.20912029 15.10537646 -58 15 C-58 14.67 -58 14.34 -58 14 C-31.27 13.505 -31.27 13.505 -4 13 C-2.92928932 6.68353656 -2.92928932 6.68353656 -3 3 C-2.34 3 -1.68 3 -1 3 C-0.67 2.01 -0.34 1.02 0 0 Z " fill="#C184A7" transform="translate(477,112)"/>
<path d="M0 0 C2.80395698 -0.04496241 5.60767928 -0.07630061 8.41186523 -0.10253906 C9.21968445 -0.11740356 10.02750366 -0.13226807 10.85980225 -0.14758301 C14.67023981 -0.16733968 17.60825828 -0.11371034 20.83374023 2.05371094 C16.65438265 3.078181 12.65517399 3.15640926 8.38134766 3.07543945 C7.64909973 3.06583191 6.91685181 3.05622437 6.16241455 3.04632568 C3.75457702 3.01348114 1.34692928 2.97309406 -1.06079102 2.93261719 C-2.73515667 2.90830183 -4.40952925 2.88445899 -6.08390808 2.86106873 C-10.48159701 2.79836862 -14.87916269 2.72926242 -19.2767334 2.65881348 C-23.76784677 2.58800261 -28.25904721 2.52326206 -32.75024414 2.45800781 C-41.55567913 2.32917698 -50.36099318 2.19357713 -59.16625977 2.05371094 C-59.16625977 1.72371094 -59.16625977 1.39371094 -59.16625977 1.05371094 C-51.55725843 0.9086532 -43.94820495 0.76659724 -36.33911133 0.62646484 C-33.75967185 0.5786261 -31.18024424 0.53014217 -28.60083008 0.48095703 C-21.24595289 0.34094577 -13.89106196 0.21181124 -6.53564453 0.10351562 C-4.3570611 0.07131281 -2.17850799 0.03695518 0 0 Z " fill="#BB80A0" transform="translate(427.166259765625,196.9462890625)"/>
<path d="M0 0 C1.23451904 0.00821777 2.46903809 0.01643555 3.7409668 0.02490234 C4.41001541 0.02890045 5.07906403 0.03289856 5.76838684 0.03701782 C12.62941555 0.08996101 19.48852683 0.225363 26.34667969 0.42822266 C27.7202665 0.46718966 29.09397947 0.50190437 30.46777344 0.53271484 C32.49395908 0.57829512 34.5198278 0.63733989 36.5456543 0.69677734 C37.72796631 0.72819824 38.91027832 0.75961914 40.12841797 0.79199219 C43.0798265 1.09934723 44.63545778 1.72647487 47.19018555 3.11083984 C40.24848533 3.16142713 33.30683239 3.19652563 26.36499023 3.22070312 C24.00201644 3.23077908 21.63905516 3.24444013 19.27612305 3.26171875 C15.88546667 3.28589709 12.4949747 3.29730683 9.10424805 3.30615234 C8.04275543 3.31647491 6.98126282 3.32679749 5.88760376 3.33743286 C4.90673798 3.33758392 3.92587219 3.33773499 2.9152832 3.33789062 C1.61622543 3.34455246 1.61622543 3.34455246 0.29092407 3.35134888 C-1.80981445 3.11083984 -1.80981445 3.11083984 -3.80981445 1.11083984 C-2.80981445 0.11083984 -2.80981445 0.11083984 0 0 Z " fill="#B07696" transform="translate(401.809814453125,165.88916015625)"/>
<path d="M0 0 C2.31 0 4.62 0 7 0 C7 0.33 7 0.66 7 1 C9.31 1.66 11.62 2.32 14 3 C8.21864387 8.2557783 2.68259128 9.31357515 -5 9 C-5 8.34 -5 7.68 -5 7 C-2.69 7 -0.38 7 2 7 C1.67 6.401875 1.34 5.80375 1 5.1875 C0 3 0 3 0 0 Z " fill="#AE628E" transform="translate(456,240)"/>
<path d="M0 0 C13.2 0 26.4 0 40 0 C40 0.66 40 1.32 40 2 C35.26817511 2.19318246 30.53610177 2.37175183 25.80322266 2.53710938 C24.19500136 2.59531968 22.58691651 2.65744199 20.97900391 2.72363281 C18.66073469 2.81837323 16.34233057 2.89878931 14.0234375 2.9765625 C13.31069672 3.00875885 12.59795593 3.0409552 11.86361694 3.0741272 C7.4846296 3.20397918 4.06410667 2.62897846 0 1 C0 0.67 0 0.34 0 0 Z " fill="#C389A8" transform="translate(376,84)"/>
<path d="M0 0 C0.79481277 0.00424484 1.58962555 0.00848969 2.40852356 0.01286316 C4.94587146 0.02964945 7.48242363 0.06730051 10.01953125 0.10546875 C11.7402229 0.1205157 13.46092701 0.13420409 15.18164062 0.14648438 C19.39874387 0.17955268 23.61525267 0.2313338 27.83203125 0.29296875 C28.32703125 1.28296875 28.32703125 1.28296875 28.83203125 2.29296875 C16.95203125 1.96296875 5.07203125 1.63296875 -7.16796875 1.29296875 C-7.49796875 3.93296875 -7.82796875 6.57296875 -8.16796875 9.29296875 C-7.50796875 9.62296875 -6.84796875 9.95296875 -6.16796875 10.29296875 C-6.49796875 11.28296875 -6.82796875 12.27296875 -7.16796875 13.29296875 C-8.48796875 12.63296875 -9.80796875 11.97296875 -11.16796875 11.29296875 C-11.53276196 3.87550675 -11.53276196 3.87550675 -10.16015625 1.68359375 C-7.02364775 -0.50581218 -3.68449594 -0.07390189 0 0 Z " fill="#AC7393" transform="translate(482.16796875,139.70703125)"/>
<path d="M0 0 C3.96 0 7.92 0 12 0 C12 0.33 12 0.66 12 1 C8.37 1 4.74 1 1 1 C1.495 2.340625 1.99 3.68125 2.5 5.0625 C4.76453949 11.92051295 4.198209 17.26798493 2 24 C1.67 24 1.34 24 1 24 C1.33 19.05 1.66 14.1 2 9 C1.01 8.67 0.02 8.34 -1 8 C-1.33 6.35 -1.66 4.7 -2 3 C-1.34 3 -0.68 3 0 3 C0 2.01 0 1.02 0 0 Z " fill="#BA80A0" transform="translate(475,211)"/>
<path d="M0 0 C0.66 0.33 1.32 0.66 2 1 C2.33 1.99 2.66 2.98 3 4 C13.23 4.33 23.46 4.66 34 5 C34 5.33 34 5.66 34 6 C28.76762064 6.19210448 23.53502233 6.37085125 18.30175781 6.53710938 C16.5207082 6.59558966 14.73977553 6.65775006 12.95898438 6.72363281 C10.40256032 6.81757713 7.84601088 6.89837558 5.2890625 6.9765625 C4.09055161 7.02485703 4.09055161 7.02485703 2.86782837 7.0741272 C0.91245465 7.12738475 -1.04526241 7.07296352 -3 7 C-3.66 6.34 -4.32 5.68 -5 5 C-4 2 -4 2 -2.0625 0.75 C-1.381875 0.5025 -0.70125 0.255 0 0 Z " fill="#CE9CB7" transform="translate(372,208)"/>
<path d="M0 0 C0 0.33 0 0.66 0 1 C-1.65 1 -3.3 1 -5 1 C-6.85776765 4.13498292 -7.20140476 6.37471432 -7 10 C-6.34 10.33 -5.68 10.66 -5 11 C-5 11.99 -5 12.98 -5 14 C-5.99 14 -6.98 14 -8 14 C-10.48038907 10.2794164 -10.46337203 8.40203429 -10 4 C-7.21083461 -0.18374808 -4.85662887 -0.44151172 0 0 Z " fill="#B17C9A" transform="translate(511,166)"/>
<path d="M0 0 C3.4375 1.5 3.4375 1.5 4.875 4.625 C5.060625 5.57375 5.24625 6.5225 5.4375 7.5 C4.7775 7.5 4.1175 7.5 3.4375 7.5 C3.623125 8.28375 3.80875 9.0675 4 9.875 C4.4375 12.5 4.4375 12.5 3.4375 14.5 C2.7775 14.17 2.1175 13.84 1.4375 13.5 C1.499375 12.241875 1.56125 10.98375 1.625 9.6875 C1.63031107 6.44348248 1.63031107 6.44348248 0.25 3.5625 C-1.98748625 2.25087013 -4.00562331 1.84552388 -6.5625 1.5 C-3.5625 -0.5 -3.5625 -0.5 0 0 Z " fill="#B87C9F" transform="translate(353.5625,215.5)"/>
<path d="M0 0 C0.33 0 0.66 0 1 0 C1.2253459 3.30507324 1.34500438 5.39213514 -0.3125 8.3125 C-2.99608638 10.99608638 -5.04042034 11.00104069 -8.79296875 11.09765625 C-10.25784438 11.09102785 -11.72270378 11.07913087 -13.1875 11.0625 C-13.93708984 11.05798828 -14.68667969 11.05347656 -15.45898438 11.04882812 C-17.30602383 11.03706354 -19.15302213 11.01912865 -21 11 C-21 10.67 -21 10.34 -21 10 C-19.44539063 9.90912109 -19.44539063 9.90912109 -17.859375 9.81640625 C-16.48957127 9.73196629 -15.11978025 9.64732003 -13.75 9.5625 C-13.06808594 9.52318359 -12.38617187 9.48386719 -11.68359375 9.44335938 C-8.35551959 9.23333528 -5.19744598 8.98065998 -2 8 C-1.855625 7.4225 -1.71125 6.845 -1.5625 6.25 C-1.04166667 4.16666667 -0.52083333 2.08333333 0 0 Z " fill="#D2A8BE" transform="translate(527,170)"/>
<path d="M0 0 C6.4 0.49230769 6.4 0.49230769 9.4375 3.0625 C10.2109375 4.0215625 10.2109375 4.0215625 11 5 C10.67 5.66 10.34 6.32 10 7 C5.04303419 5.76075855 2.88341534 4.21422242 0 0 Z " fill="#B37395" transform="translate(288,41)"/>
<path d="M0 0 C2.53940725 3.80911088 1.97694232 5.19458128 1.25 9.625 C0.97929687 11.37683594 0.97929687 11.37683594 0.703125 13.1640625 C0.47109375 14.09992188 0.2390625 15.03578125 0 16 C-0.66 16.33 -1.32 16.66 -2 17 C-2.05441656 15.10448978 -2.09298035 13.2085208 -2.125 11.3125 C-2.14820313 10.25675781 -2.17140625 9.20101562 -2.1953125 8.11328125 C-1.99858729 4.97748141 -1.33057654 2.82354627 0 0 Z " fill="#B77E9E" transform="translate(433,214)"/>
<path d="M0 0 C7.4736245 0.49007374 7.4736245 0.49007374 10 2.9375 C11 5 11 5 11 7 C10.01 7 9.02 7 8 7 C7.34 6.34 6.68 5.68 6 5 C5.34 4.67 4.68 4.34 4 4 C4 3.34 4 2.68 4 2 C2.35 2 0.7 2 -1 2 C-0.67 1.34 -0.34 0.68 0 0 Z " fill="#B07096" transform="translate(453,139)"/>
<path d="M0 0 C0.33 0 0.66 0 1 0 C0.67 2.31 0.34 4.62 0 7 C-3.63 7.66 -7.26 8.32 -11 9 C-11 8.01 -11 7.02 -11 6 C-10.0925 6.061875 -9.185 6.12375 -8.25 6.1875 C-4.67389735 5.98118639 -3.49451413 5.49451413 -1 3 C-0.67 2.01 -0.34 1.02 0 0 Z " fill="#BD7DA2" transform="translate(462,226)"/>
<path d="M0 0 C0.66 0.33 1.32 0.66 2 1 C1.4740625 1.804375 1.4740625 1.804375 0.9375 2.625 C-0.28924249 5.73274763 0.27143569 7.79431703 1 11 C0.01 11 -0.98 11 -2 11 C-3.35384615 4.6 -3.35384615 4.6 -1.5625 1.5625 C-1.046875 1.046875 -0.53125 0.53125 0 0 Z " fill="#B27C9A" transform="translate(494,111)"/>
<path d="M0 0 C2 2 2 2 2.1953125 4.1640625 C2.16050781 5.38222656 2.16050781 5.38222656 2.125 6.625 C2.10695313 7.44226563 2.08890625 8.25953125 2.0703125 9.1015625 C2.04710937 9.72804687 2.02390625 10.35453125 2 11 C1.01 11.495 1.01 11.495 0 12 C-1.28571429 3.42857143 -1.28571429 3.42857143 0 0 Z " fill="#B6819F" transform="translate(325,219)"/>
<path d="M0 0 C4.12751449 0.60698743 7.3321148 2.03810791 11 4 C10.34 4.66 9.68 5.32 9 6 C4.545 4.02 4.545 4.02 0 2 C0 1.34 0 0.68 0 0 Z " fill="#B07995" transform="translate(343,119)"/>
<path d="M0 0 C0.66 0 1.32 0 2 0 C2 0.66 2 1.32 2 2 C2.99 2.33 3.98 2.66 5 3 C5 4.65 5 6.3 5 8 C4.01 8 3.02 8 2 8 C0.69951159 5.39902318 0.43528578 2.86044938 0 0 Z " fill="#B47498" transform="translate(353,140)"/>
<path d="M0 0 C0 0.99 0 1.98 0 3 C-0.66 3.66 -1.32 4.32 -2 5 C-2 4.34 -2 3.68 -2 3 C-2.66 2.67 -3.32 2.34 -4 2 C-2.68 1.34 -1.36 0.68 0 0 Z M-6 5 C-3.875 5.375 -3.875 5.375 -2 6 C-2.66 6.66 -3.32 7.32 -4 8 C-6.125 7.625 -6.125 7.625 -8 7 C-7.34 6.34 -6.68 5.68 -6 5 Z " fill="#B86A96" transform="translate(354,230)"/>
<path d="M0 0 C1.9375 0.3125 1.9375 0.3125 4 1 C5.09658936 4.28976808 4.79953138 5.71303767 4 9 C2.68 8.34 1.36 7.68 0 7 C0.33 6.34 0.66 5.68 1 5 C1.66 5.33 2.32 5.66 3 6 C2.34 5.01 1.68 4.02 1 3 C0.67 2.01 0.34 1.02 0 0 Z " fill="#AC668F" transform="translate(433,58)"/>
<path d="M0 0 C0.33 0 0.66 0 1 0 C1.33 2.64 1.66 5.28 2 8 C2.99 8.33 3.98 8.66 5 9 C3 10 3 10 -1 10 C-0.67 6.7 -0.34 3.4 0 0 Z " fill="#C389A8" transform="translate(446,222)"/>
<path d="M0 0 C0.33 0 0.66 0 1 0 C1.66 2.97 2.32 5.94 3 9 C1.68 8.67 0.36 8.34 -1 8 C-1.04241723 5.66705225 -1.04092937 3.33297433 -1 1 C-0.67 0.67 -0.34 0.34 0 0 Z " fill="#B57EA1" transform="translate(340,222)"/>
<path d="M0 0 C5.95703125 -0.390625 5.95703125 -0.390625 8 0 C8.99 1.32 9.98 2.64 11 4 C7.37 3.01 3.74 2.02 0 1 C0 0.67 0 0.34 0 0 Z " fill="#B07395" transform="translate(516,166)"/>
<path d="M0 0 C0.99 0 1.98 0 3 0 C2.67 0.99 2.34 1.98 2 3 C2.99 3.99 3.98 4.98 5 6 C4.67 6.99 4.34 7.98 4 9 C-0.00390625 4.60546875 -0.00390625 4.60546875 -1 3 C-0.67 2.01 -0.34 1.02 0 0 Z " fill="#C698AF" transform="translate(348,131)"/>
<path d="M0 0 C2.00720923 0.28674418 4.0085944 0.61866701 6 1 C4.35 2.32 2.7 3.64 1 5 C0.34 3.68 -0.32 2.36 -1 1 C-0.67 0.67 -0.34 0.34 0 0 Z " fill="#B16F95" transform="translate(464,242)"/>
<path d="M0 0 C1.32 0.33 2.64 0.66 4 1 C4.33 2.32 4.66 3.64 5 5 C2.69 5.33 0.38 5.66 -2 6 C-0.68 5.34 0.64 4.68 2 4 C1.34 2.68 0.68 1.36 0 0 Z " fill="#BE86A6" transform="translate(353,125)"/>
<path d="M0 0 C2.36574234 3.5486135 2.10865265 4.5764525 1.625 8.6875 C1.51414062 9.68136719 1.40328125 10.67523438 1.2890625 11.69921875 C1.19367188 12.45847656 1.09828125 13.21773437 1 14 C0.67 14 0.34 14 0 14 C-0.19456705 12.04235617 -0.38044247 10.08384679 -0.5625 8.125 C-0.66691406 7.03445312 -0.77132813 5.94390625 -0.87890625 4.8203125 C-1 2 -1 2 0 0 Z " fill="#B795AE" transform="translate(290,77)"/>
<path d="M0 0 C1.65 0 3.3 0 5 0 C3.35 1.98 1.7 3.96 0 6 C-0.66 5.67 -1.32 5.34 -2 5 C-1.34 3.35 -0.68 1.7 0 0 Z " fill="#B17D9A" transform="translate(375,71)"/>
<path d="M0 0 C0.66 0 1.32 0 2 0 C2.185625 1.7015625 2.185625 1.7015625 2.375 3.4375 C2.684375 5.2009375 2.684375 5.2009375 3 7 C3.66 7.33 4.32 7.66 5 8 C3.35 7.67 1.7 7.34 0 7 C0 4.69 0 2.38 0 0 Z " fill="#BF85A6" transform="translate(299,51)"/>
<path d="M0 0 C0 0.66 0 1.32 0 2 C-0.66 2 -1.32 2 -2 2 C-2 2.66 -2 3.32 -2 4 C-2.99 4.33 -3.98 4.66 -5 5 C-5 4.34 -5 3.68 -5 3 C-5.99 2.67 -6.98 2.34 -8 2 C-5.09399739 0.74335022 -3.20395416 0 0 0 Z " fill="#A44B7C" transform="translate(281,41)"/>
<path d="M0 0 C1.875 0.25 1.875 0.25 4 1 C5.25 3.0625 5.25 3.0625 6 5 C5.01 5 4.02 5 3 5 C1.3125 2.5 1.3125 2.5 0 0 Z " fill="#B983A2" transform="translate(434,237)"/>
<path d="M0 0 C0.99 0 1.98 0 3 0 C3 0.66 3 1.32 3 2 C3.66 2.33 4.32 2.66 5 3 C1.25 6 1.25 6 -1 6 C-0.67 4.02 -0.34 2.04 0 0 Z " fill="#AF618A" transform="translate(417,122)"/>
<path d="M0 0 C1.32 0.33 2.64 0.66 4 1 C4.33 2.32 4.66 3.64 5 5 C3.35 4.67 1.7 4.34 0 4 C0 2.68 0 1.36 0 0 Z " fill="#AA6B8F" transform="translate(434,94)"/>
<path d="" fill="#FFFFFF" transform="translate(0,0)"/>
<path d="" fill="#FFFFFF" transform="translate(0,0)"/>
<path d="" fill="#FFFFFF" transform="translate(0,0)"/>
<path d="" fill="#FFFFFF" transform="translate(0,0)"/>
<path d="" fill="#FFFFFF" transform="translate(0,0)"/>
<path d="" fill="#FFFFFF" transform="translate(0,0)"/>
<path d="" fill="#FFFFFF" transform="translate(0,0)"/>
<path d="" fill="#FFFFFF" transform="translate(0,0)"/>
<path d="" fill="#FFFFFF" transform="translate(0,0)"/>
<path d="" fill="#FFFFFF" transform="translate(0,0)"/>
<path d="" fill="#FFFFFF" transform="translate(0,0)"/>
<path d="" fill="#FFFFFF" transform="translate(0,0)"/>
<path d="" fill="#FFFFFF" transform="translate(0,0)"/>
<path d="" fill="#FFFFFF" transform="translate(0,0)"/>
<path d="" fill="#FFFFFF" transform="translate(0,0)"/>
<path d="" fill="#FFFFFF" transform="translate(0,0)"/>
<path d="" fill="#FFFFFF" transform="translate(0,0)"/>
<path d="" fill="#FFFFFF" transform="translate(0,0)"/>
<path d="" fill="#FFFFFF" transform="translate(0,0)"/>
<path d="" fill="#FFFFFF" transform="translate(0,0)"/>
<path d="" fill="#FFFFFF" transform="translate(0,0)"/>
<path d="" fill="#FFFFFF" transform="translate(0,0)"/>
<path d="" fill="#FFFFFF" transform="translate(0,0)"/>
<path d="" fill="#FFFFFF" transform="translate(0,0)"/>
<path d="" fill="#FFFFFF" transform="translate(0,0)"/>
<path d="" fill="#FFFFFF" transform="translate(0,0)"/>
<path d="" fill="#FFFFFF" transform="translate(0,0)"/>
<path d="" fill="#FFFFFF" transform="translate(0,0)"/>
<path d="" fill="#FFFFFF" transform="translate(0,0)"/>
<path d="" fill="#FFFFFF" transform="translate(0,0)"/>
<path d="" fill="#FFFFFF" transform="translate(0,0)"/>
<path d="" fill="#FFFFFF" transform="translate(0,0)"/>
<path d="" fill="#FFFFFF" transform="translate(0,0)"/>
<path d="" fill="#FFFFFF" transform="translate(0,0)"/>
<path d="" fill="#FFFFFF" transform="translate(0,0)"/>
<path d="" fill="#FFFFFF" transform="translate(0,0)"/>
<path d="" fill="#FFFFFF" transform="translate(0,0)"/>
<path d="" fill="#FFFFFF" transform="translate(0,0)"/>
</svg>
